<?xml version="1.0" ?><!DOCTYPE svg  PUBLIC '-//W3C//DTD SVG 1.1//EN'  'http://www.w3.org/Graphics/SVG/1.1/DTD/svg11.dtd'><svg enable-background="new 0 0 24 24" height="24px" id="Layer_1" version="1.1" viewBox="0 0 24 24" width="24px" xml:space="preserve" xmlns="http://www.w3.org/2000/svg" xmlns:xlink="http://www.w3.org/1999/xlink"><g><path d="M23,20.7H6c-3.1,0-5.5-2.5-5.5-5.5V3.8c0-0.3,0.2-0.5,0.5-0.5h4.7c0.3,0,0.5,0.2,0.5,0.5V14c0,0.3,0.2,0.5,0.5,0.5h2.8   l0-10.7c0-0.3,0.2-0.5,0.5-0.5h4.3c0.3,0,0.5,0.2,0.5,0.5v10.7h3.2V3.8c0-0.3,0.2-0.5,0.5-0.5H23c0.3,0,0.5,0.2,0.5,0.5v16.4   C23.5,20.5,23.3,20.7,23,20.7z"/></g></svg>